<?xml version="1.0" encoding="UTF-8" standalone="no"?>
<!-- Created with Inkscape (http://www.inkscape.org/) -->

<svg
   width="225.31294"
   height="139.00772"
   viewBox="0 0 225.31294 139.00772"
   version="1.1"
   id="svg5"
   xmlns="http://www.w3.org/2000/svg"
   xmlns:svg="http://www.w3.org/2000/svg">
  <defs
     id="defs2" />
  <g
     id="layer1"
     transform="translate(-68.378413,-291.11132)">
    <g
       id="g481"
       style="font-size:40px;line-height:1.25;fill:#ffffff">
      <path
         d="m 94.886246,331.19034 q 0,0.24609 -0.421875,0.5625 -5.800782,4.04297 -10.019532,8.22656 -4.183593,4.18359 -6.925781,8.50781 -2.742187,4.32422 -4.042969,8.75391 -1.300781,4.42969 -1.300781,8.96484 0,4.64063 1.335938,8.57813 1.371093,3.9375 3.796875,7.13672 2.425781,3.23437 5.765625,5.69531 3.339843,2.49609 7.277343,4.14844 3.9375,1.6875 8.332032,2.53125 4.429689,0.8789 8.999999,0.8789 8.47266,0 16.94531,-2.17968 8.50782,-2.17969 16.98047,-6.82032 8.50781,-4.64062 16.98047,-11.84765 8.50781,-7.24219 17.01563,-17.33203 1.4414,-1.72266 2.74218,-3.30469 1.30078,-1.61719 2.56641,-3.23438 1.26562,-1.65234 2.53125,-3.33984 1.26562,-1.72266 2.63672,-3.69141 0.21094,-0.28125 0.35156,-0.5625 0.14063,-0.28125 0.42188,-0.28125 0.28125,0 0.3164,0.35157 0.0352,0.35156 0.0352,0.5625 0,0.3164 -0.0703,1.125 -0.0703,0.80859 -0.14063,1.6875 -0.10547,0.91406 -0.17578,1.72265 -0.0703,0.8086 -0.10547,1.08985 -0.31641,2.17968 -0.66797,4.18359 -0.38672,2.03906 -0.80859,4.39453 -0.42188,2.32031 -0.87891,5.20313 -0.45703,2.84765 -0.94922,6.67968 -0.0703,0.52735 -0.3164,1.16016 -0.2461,0.59766 -0.52735,0.59766 -0.17578,0 -0.35156,-0.21094 -0.14062,-0.2461 -0.21094,-0.5625 -0.0703,-0.21094 -0.10547,-0.73828 -0.0352,-0.52735 -0.0703,-1.16016 0,-0.63281 -0.0352,-1.30078 0,-0.70313 0,-1.23047 0,-0.5625 0,-1.33594 0.0352,-0.77343 0.0703,-1.54687 0.0352,-0.8086 0.0703,-1.51172 0.0352,-0.70313 0.0703,-1.16016 l -0.28125,-0.14062 q -9.14062,12.09375 -18.28125,20.74219 -9.10547,8.64843 -18.24609,14.16796 -9.10547,5.55469 -18.24609,8.15625 -9.10547,2.63672 -18.21094,2.63672 -5.41406,0 -10.511721,-0.98437 -5.097656,-0.98438 -9.597656,-2.98828 -4.464844,-2.00391 -8.191406,-5.02735 -3.726563,-2.98828 -6.398438,-7.03125 -2.671875,-4.00781 -4.183593,-9.07031 -1.476563,-5.02734 -1.476563,-11.10937 0,-4.57032 0.984375,-8.96485 0.984375,-4.39453 3.058594,-8.61328 2.074219,-4.21875 5.273437,-8.22656 3.234375,-4.00781 7.699219,-7.80469 3.339844,-2.8125 5.695313,-4.11328 2.390625,-1.30078 3.09375,-1.30078 0.28125,0 0.492187,0.0703 0.210938,0.0352 0.210938,0.21094 z"
         style="font-size:144px;font-family:Aldhabi;-inkscape-font-specification:'Aldhabi, Normal';fill:#ffffff"
         id="path416" />
      <path
         d="m 150.01125,325.63565 q -0.10547,0.66797 -0.35157,1.47656 -0.28125,0.8086 -0.59765,1.65235 -0.31641,0.84375 -0.66797,1.65234 -0.38672,0.77344 -0.70313,1.40625 -0.35156,0.59766 -0.5625,0.98438 -0.24609,0.35156 -0.35156,0.35156 -0.45703,0 -1.23047,-0.31641 -0.77344,-0.3164 -1.6875,-0.80859 -0.91406,-0.52735 -1.86328,-1.16016 -0.98437,-0.66797 -1.79297,-1.30078 -0.80859,-0.66797 -1.37109,-1.26562 -0.5625,-0.59766 -0.70313,-1.05469 0,-0.17578 0.21094,-0.73828 0.17578,-0.59766 0.52734,-1.3711 0.31641,-0.77343 0.70313,-1.65234 0.38672,-0.87891 0.80859,-1.61719 0.38672,-0.77344 0.73828,-1.33594 0.31641,-0.5625 0.52735,-0.73828 0.59765,0.70313 1.58203,1.54688 0.98437,0.84375 2.14453,1.6875 1.16016,0.80859 2.39063,1.51172 1.19531,0.70312 2.25,1.08984 z m 3.9375,-8.15625 q 0.73828,0.94922 1.6875,1.82813 0.98437,0.8789 2.07421,1.61718 1.125,0.73828 2.32032,1.3711 1.19531,0.59765 2.35547,1.01953 -0.8086,2.03906 -1.44141,3.44531 -0.59766,1.37109 -1.05469,2.25 -0.42187,0.84375 -0.70312,1.23047 -0.28125,0.38672 -0.38672,0.38672 -0.31641,0 -0.98438,-0.2461 -0.63281,-0.24609 -1.47656,-0.66796 -0.80859,-0.45704 -1.75781,-1.05469 -0.91406,-0.59766 -1.72266,-1.26563 -0.80859,-0.66797 -1.4414,-1.37109 -0.63282,-0.73828 -0.91407,-1.44141 0,-0.24609 0.35157,-1.16015 0.35156,-0.94922 0.8789,-2.07422 0.52735,-1.125 1.125,-2.21485 0.59766,-1.08984 1.08985,-1.65234 z"
         style="font-size:144px;font-family:Aldhabi;-inkscape-font-specification:'Aldhabi, Normal';fill:#ffffff"
         id="path418" />
    </g>
  </g>
</svg>
