<?xml version="1.0" encoding="UTF-8" standalone="no"?>
<!-- Created with Inkscape (http://www.inkscape.org/) -->

<svg
   width="225.31294"
   height="139.00772"
   viewBox="0 0 225.31294 139.00772"
   version="1.1"
   id="svg5"
   xmlns="http://www.w3.org/2000/svg"
   xmlns:svg="http://www.w3.org/2000/svg">
  <defs
     id="defs2" />
  <g
     id="layer1"
     transform="translate(-68.378413,-291.11132)">
    <g
       id="g476"
       style="font-size:40px;line-height:1.25;fill:#ff0000">
      <path
         d="m 239.44484,335.30362 q 6.64453,-1.79297 11.46094,-4.18359 4.78125,-2.42579 7.59375,-5.44922 v -0.0703 q -1.44141,-0.10546 -2.53125,-0.3164 -1.08985,-0.2461 -1.79297,-0.70313 -0.73828,-0.49218 -1.08985,-1.26562 -0.35156,-0.77344 -0.35156,-1.9336 0,-1.26562 0.49219,-2.5664 0.49219,-1.30078 1.33594,-2.35547 0.84375,-1.05469 2.0039,-1.72266 1.19532,-0.66797 2.56641,-0.66797 0.98437,0 1.75781,0.52735 0.77344,0.52734 1.30078,1.37109 0.52735,0.84375 0.8086,1.96875 0.28125,1.08985 0.28125,2.25 0,0.94922 -0.21094,1.89844 v 0.14062 q 1.89844,0.21094 2.46094,0.5625 0.5625,0.35157 0.5625,0.91407 0,0.59765 -0.31641,1.40625 -0.31641,0.77343 -0.73828,1.47656 h -0.21094 q -0.52734,-0.42188 -1.37109,-0.66797 -0.84375,-0.24609 -2.07422,-0.24609 -1.01953,1.79297 -2.46094,3.23437 -1.4414,1.40625 -3.05859,2.53125 -1.61719,1.125 -3.26953,1.9336 -1.6875,0.80859 -3.19922,1.33593 -1.51172,0.52735 -2.70703,0.77344 -1.23047,0.24609 -1.89844,0.24609 -0.73828,0 -1.37109,-0.10546 -0.63282,-0.10547 -1.16016,-0.10547 -0.73828,0 -1.58203,0.17578 -0.84375,0.17578 -1.19531,0.17578 -0.2461,0 -0.42188,-0.0703 -0.17578,-0.0703 -0.17578,-0.17578 0,-0.17579 0.5625,-0.31641 z m 22.07812,-13.28906 q -0.28125,-2.07422 -1.19531,-3.26953 -0.8789,-1.23047 -2.53125,-1.23047 -0.80859,0 -1.4414,0.21093 -0.59766,0.21094 -1.01954,0.52735 -0.42187,0.28125 -0.63281,0.63281 -0.21094,0.35156 -0.21094,0.59766 0,0.80859 0.49219,1.33593 0.52735,0.49219 1.44141,0.8086 0.91406,0.28125 2.17969,0.42187 1.30078,0.10547 2.84765,0.10547 z"
         style="font-size:144px;font-family:Aldhabi;-inkscape-font-specification:'Aldhabi, Normal';font-feature-settings:swsh;fill:#ff0000"
         id="path408" />
      <path
         id="path410"
         style="font-size:144px;font-family:Aldhabi;-inkscape-font-specification:'Aldhabi, Normal';fill:#ff0000"
         d="m 195.64453,320.2207 c -0.60937,1.59375 -1.16015,3.11719 -1.65234,4.57032 -0.51562,1.45312 -1.01954,2.88281 -1.51172,4.28906 2.08593,5.08593 3.84375,9.79687 5.27344,14.13281 1.42968,4.33593 2.53124,8.34376 3.30468,12.02344 0.0131,0.0641 0.0259,0.11995 0.0391,0.18359 0.001,0.007 0.003,0.0125 0.004,0.0195 0.11133,0.61524 0.23828,1.27344 0.37891,1.97657 0.28125,1.40625 0.62109,2.91797 1.01953,4.53515 0.39843,1.64062 0.83203,3.25781 1.30078,4.85156 0.70313,2.32032 1.53516,4.33595 2.4961,6.04688 0.98437,1.73438 2.05077,3.16406 3.19921,4.28906 1.17188,1.125 2.42578,1.96875 3.76172,2.53125 1.33594,0.5625 2.73048,0.84375 4.1836,0.84375 2.20312,0 4.26562,-0.63281 6.1875,-1.89844 1.92187,-1.26562 3.58594,-3.25781 4.99218,-5.97656 0.5625,-1.10156 1.04297,-2.27344 1.44141,-3.51562 0.42187,-1.21875 0.8086,-2.48438 1.16016,-3.79688 0.49218,-1.73438 0.91405,-3.32813 1.26562,-4.78125 0.375,-1.42968 0.5625,-2.76562 0.5625,-4.00781 0,-2.20312 -0.39844,-4.58204 -1.19531,-7.13672 -0.79688,-2.55469 -2.03907,-5.35547 -3.72656,-8.40234 h -0.35157 c -0.82031,1.66406 -1.53515,3.22266 -2.14453,4.67578 -0.60937,1.45312 -1.18359,2.87109 -1.72265,4.2539 1.59375,2.57813 2.73047,4.86329 3.41015,6.85547 0.67969,2.01563 1.01953,3.85548 1.01953,5.51953 0,0.63282 -0.16406,1.26563 -0.49218,1.89844 -0.32812,0.63281 -0.77344,1.25391 -1.33594,1.86328 -0.53907,0.60938 -1.17188,1.17188 -1.89844,1.6875 -0.70312,0.53906 -1.45313,1.00781 -2.25,1.40625 -0.77344,0.39844 -1.57031,0.71484 -2.39062,0.94922 -0.79688,0.23437 -1.54688,0.35156 -2.25,0.35156 -1.35938,0 -2.57813,-0.19921 -3.65625,-0.59765 -1.05469,-0.39843 -2.01563,-1.04297 -2.88282,-1.9336 -0.86718,-0.86718 -1.65234,-2.01562 -2.35547,-3.44531 -0.45328,-0.90657 -0.88057,-1.95345 -1.28515,-3.11328 -0.3617,-1.19137 -0.71947,-2.41528 -1.07031,-3.70703 -1.00782,-3.8203 -1.92189,-7.91016 -2.74219,-12.26953 -0.84375,-4.35937 -1.91016,-8.62501 -3.19922,-12.79688 -1.26563,-4.17187 -2.80078,-8.29687 -4.60547,-12.375 z" />
      <path
         d="m 231.50343,396.82706 q -0.17578,0.94922 -0.59765,2.14453 -0.45703,1.23047 -0.94922,2.32031 -0.49219,1.08984 -0.91406,1.82813 -0.42188,0.73828 -0.5625,0.73828 -0.45704,0 -1.16016,-0.31641 -0.73828,-0.28125 -1.58203,-0.77344 -0.87891,-0.45703 -1.75781,-1.05468 -0.87891,-0.59766 -1.61719,-1.23047 -0.77344,-0.59766 -1.30078,-1.19532 -0.52735,-0.5625 -0.66797,-0.98437 0,-0.21094 0.42187,-1.23047 0.38672,-1.01953 0.91407,-2.21484 0.52734,-1.19532 1.08984,-2.21485 0.5625,-1.01953 0.87891,-1.23047 0.5625,0.63282 1.47656,1.40625 0.91406,0.8086 2.0039,1.54688 1.08985,0.77344 2.21485,1.44141 1.125,0.66796 2.10937,1.01953 z m 3.65625,-7.59375 q 1.44141,1.79297 3.55078,3.19922 2.14454,1.40625 4.32422,2.21484 -0.73828,1.93359 -1.33593,3.23437 -0.5625,1.30079 -0.98438,2.07422 -0.42187,0.8086 -0.70312,1.16016 -0.2461,0.35156 -0.35157,0.35156 -0.28125,0 -0.8789,-0.24609 -0.59766,-0.21094 -1.3711,-0.63281 -0.77343,-0.42188 -1.65234,-0.98438 -0.84375,-0.52734 -1.61719,-1.16016 -0.77344,-0.59765 -1.37109,-1.26562 -0.59766,-0.66797 -0.84375,-1.33594 0,-0.24609 0.3164,-1.125 0.35157,-0.84375 0.8086,-1.89844 0.49219,-1.05468 1.05469,-2.07421 0.5625,-0.98438 1.05468,-1.51172 z"
         style="font-size:144px;font-family:Aldhabi;-inkscape-font-specification:'Aldhabi, Normal';fill:#ff0000"
         id="path412" />
    </g>
  </g>
</svg>
