<?xml version="1.0" encoding="UTF-8" standalone="no"?>
<!-- Created with Inkscape (http://www.inkscape.org/) -->

<svg
   width="225.31294"
   height="139.00772"
   viewBox="0 0 225.31294 139.00772"
   version="1.1"
   id="svg5"
   xmlns="http://www.w3.org/2000/svg"
   xmlns:svg="http://www.w3.org/2000/svg">
  <defs
     id="defs2" />
  <g
     id="layer1"
     transform="translate(-68.378413,-291.11132)">
    <g
       id="g470"
       style="font-size:40px;line-height:1.25;fill:#ffffff">
      <path
         id="path402"
         style="font-size:144px;font-family:Aldhabi;-inkscape-font-specification:'Aldhabi, Normal';font-feature-settings:swsh;fill:#ffffff"
         d="m 283.53125,291.11133 c -0.79688,0 -1.48829,0.10546 -2.07422,0.3164 -0.60937,0.21094 -1.12499,0.49219 -1.54687,0.84375 -0.44532,0.35156 -0.8086,0.77344 -1.08985,1.26563 -0.30468,0.49219 -0.53906,1.01953 -0.70312,1.58203 -0.25781,0.75 -0.42188,1.3711 -0.49219,1.86328 -0.0937,0.49219 -0.14062,0.87891 -0.14062,1.16016 0,0.91406 0.35156,1.69922 1.05468,2.35547 0.70313,0.63281 1.61719,1.08984 2.74219,1.37109 v 0.0703 c -0.1875,0.23438 -0.38672,0.57422 -0.59766,1.01953 -0.21094,0.42188 -0.39844,0.86719 -0.5625,1.33594 -0.1875,0.44531 -0.32812,0.84375 -0.42187,1.19531 -0.11719,0.375 -0.17578,0.59766 -0.17578,0.66797 0,0.32813 0.11718,0.49219 0.35156,0.49219 0.14062,0 0.26953,-0.0586 0.38672,-0.17578 0.0937,-0.11719 0.19922,-0.2461 0.3164,-0.38672 0.39844,-0.65625 0.90235,-1.21875 1.51172,-1.6875 0.60938,-0.49219 1.26563,-0.91406 1.96875,-1.26562 0.67969,-0.375 1.38281,-0.71485 2.10938,-1.01954 0.72656,-0.28125 1.40625,-0.57422 2.03906,-0.8789 0.65625,-0.30469 1.21875,-0.62109 1.6875,-0.94922 0.49219,-0.35156 0.85547,-0.76172 1.08985,-1.23047 0.14062,-0.25781 0.32812,-0.63281 0.5625,-1.125 0.21093,-0.49219 0.5625,-0.98438 1.05468,-1.47656 0.11719,-0.11719 0.17578,-0.22266 0.17578,-0.31641 0,-0.14062 -0.0703,-0.21094 -0.21093,-0.21094 -0.0703,0 -0.17579,0.0352 -0.31641,0.10547 -0.60938,0.32813 -1.27735,0.66797 -2.00391,1.01953 -0.70312,0.32813 -1.41797,0.64454 -2.14453,0.94922 -0.70312,0.28125 -1.40625,0.51563 -2.10937,0.70313 -0.67969,0.1875 -1.31251,0.28125 -1.89844,0.28125 -0.32813,0 -0.75,-0.0703 -1.26563,-0.21094 -0.51562,-0.14063 -1.01953,-0.33984 -1.51171,-0.59766 -0.51562,-0.28125 -0.94922,-0.59765 -1.30079,-0.94921 -0.37499,-0.375 -0.5625,-0.79688 -0.5625,-1.26563 0,-0.35157 0.26953,-0.6914 0.8086,-1.01953 0.53906,-0.35156 1.32422,-0.52734 2.35547,-0.52734 1.17188,0 2.02734,0.15234 2.5664,0.45703 0.53908,0.30468 0.83204,0.73828 0.87891,1.30078 0.0469,0.23438 0.16406,0.35156 0.35156,0.35156 0.11719,0 0.21094,-0.0703 0.28125,-0.21094 0.21094,-0.5625 0.42188,-1.08984 0.63281,-1.58203 0.1875,-0.46875 0.28126,-0.94922 0.28126,-1.4414 -10e-6,-0.63282 -0.35157,-1.14845 -1.05469,-1.54688 -0.70312,-0.42188 -1.71094,-0.63281 -3.02344,-0.63281 z m 4.74609,26.01562 c -0.82031,1.59375 -1.53515,3.12891 -2.14453,4.60547 -0.60937,1.47656 -1.18359,2.91797 -1.72265,4.32422 0.63281,1.125 1.20703,2.20313 1.72265,3.23438 0.53906,1.03125 0.9961,2.0625 1.3711,3.09375 0.39844,1.00781 0.70312,2.02734 0.91406,3.05859 0.23437,1.03125 0.35156,2.09766 0.35156,3.19922 0,1.38281 -0.42187,2.70703 -1.26562,3.97265 -0.84375,1.26563 -1.89844,2.44923 -3.16407,3.55079 -2.78905,2.39062 -5.48437,4.14843 -8.08593,5.27343 -1.34122,0.58526 -2.68907,1.01414 -4.04297,1.29493 -0.42314,-1.35235 -0.90347,-2.64046 -1.47656,-3.82618 -0.65625,-1.40625 -1.40625,-2.625 -2.25,-3.65625 -0.82032,-1.05468 -1.73438,-1.87499 -2.74219,-2.46093 -0.98437,-0.60938 -2.05079,-0.91407 -3.19922,-0.91407 -0.89063,0 -1.66406,0.17579 -2.32031,0.52735 -0.65625,0.32812 -1.21875,0.77343 -1.6875,1.33593 -0.46875,0.5625 -0.84375,1.21876 -1.125,1.96875 -0.28125,0.72656 -0.46875,1.48828 -0.5625,2.28516 -0.1875,1.26562 -0.35157,2.73047 -0.49219,4.39453 -0.14063,1.64062 -0.21094,3.29297 -0.21094,4.95703 0,0.89063 0.1875,1.71094 0.5625,2.46094 0.375,0.72656 0.86719,1.35938 1.47656,1.89844 0.60938,0.51562 1.30078,0.92578 2.07422,1.23047 0.79688,0.30468 1.60547,0.45703 2.42578,0.45703 1.19532,0 2.37891,-0.082 3.55079,-0.2461 1.17187,-0.16406 2.35546,-0.38671 3.55078,-0.66796 0.35156,0.49218 0.60937,1.01953 0.77343,1.58203 0.1875,0.5625 0.28125,1.08984 0.28125,1.58203 0,0.89062 -0.15234,1.91015 -0.45703,3.05859 -0.28125,1.125 -0.70312,2.33204 -1.26562,3.6211 -0.53906,1.28905 -1.19531,2.63671 -1.96875,4.04296 -0.77344,1.40625 -1.62891,2.82422 -2.56641,4.25391 -3.07031,4.5703 -6.44532,8.78906 -10.125,12.65625 -3.67968,3.86718 -7.57031,7.39454 -11.67187,10.58203 -4.07812,3.1875 -8.32032,6.04688 -12.72657,8.57813 -4.38281,2.55468 -8.82422,4.78125 -13.32421,6.67968 -4.5,1.92188 -9.01173,3.53907 -13.53516,4.85157 -4.5,1.33594 -8.90626,2.3789 -13.21875,3.1289 -0.49219,0.0703 -0.93751,0.15235 -1.33594,0.2461 -0.375,0.0937 -0.5625,0.19922 -0.5625,0.3164 0,0.11716 0.082,0.18747 0.24609,0.21094 0.16407,0.0469 0.31642,0.0703 0.45704,0.0703 0.1875,0 0.5625,-0.0117 1.125,-0.0352 0.53906,-0.0234 1.05469,-0.0352 1.54687,-0.0352 1.10156,0 2.23829,0.11719 3.41016,0.35156 1.19531,0.23438 2.42578,0.49219 3.6914,0.77344 1.26563,0.28125 2.56642,0.53907 3.90235,0.77344 1.35938,0.23438 2.75391,0.35156 4.18359,0.35156 1.33593,0 3.03516,-0.23437 5.09766,-0.70312 2.0625,-0.44532 4.37109,-1.12501 6.92578,-2.03907 2.55468,-0.91406 5.28516,-2.0625 8.19141,-3.44531 2.92968,-1.38281 5.92968,-3.01172 9,-4.88672 3.09375,-1.875 6.1875,-3.9961 9.28124,-6.36328 3.09376,-2.34375 6.08204,-4.94532 8.96485,-7.80469 2.90624,-2.85937 5.64844,-5.97656 8.22656,-9.35156 2.57813,-3.35156 4.87501,-6.96094 6.89063,-10.82812 0.72656,-1.35938 1.35937,-2.76563 1.89843,-4.21875 0.5625,-1.45313 1.03125,-2.96485 1.40625,-4.53516 0.39844,-1.59375 0.69141,-3.26953 0.87891,-5.02734 0.21093,-1.75782 0.31641,-3.63282 0.31641,-5.625 0,-0.75 -0.0118,-1.53516 -0.0352,-2.35547 0,-0.42722 -0.0168,-0.83164 -0.0469,-1.2168 1.2299,-0.35384 2.45255,-0.81389 3.66797,-1.38477 1.54688,-0.70312 3.05859,-1.58203 4.53516,-2.63671 1.47656,-1.03125 2.84766,-2.20313 4.11328,-3.51563 0.82031,-0.86719 1.51172,-1.73438 2.07422,-2.60156 0.58593,-0.86719 1.08984,-1.78126 1.51172,-2.74219 0.4453,-0.98438 0.84374,-2.03906 1.19531,-3.16406 0.35156,-1.125 0.72656,-2.39063 1.125,-3.79688 0.49219,-1.73437 0.91407,-3.3164 1.26563,-4.74609 0.375,-1.45312 0.5625,-2.80078 0.5625,-4.04297 0,-2.36719 -0.42188,-4.85157 -1.26563,-7.45312 -0.84375,-2.625 -2.10938,-5.46095 -3.79687,-8.50782 z" />
    </g>
  </g>
</svg>
